# xmcd
#
# Track frame offsets:
#	150
#	18371
#	34040
#	52083
#	71077
#	86298
#	103196
#	121462
#	137354
#	157221
#	171537
#	191156
#	210127
#
# Disc length: 3071 seconds
#
# Revision: 1
# Processed by: cddbd v1.5.2PL0 Copyright (c) Steve Scherf et al.
# Submitted via: audiograbber 1.83.01
#
DISCID=b60bfd0d
DTITLE=Flo Rida - R.O.O.T.S.
DYEAR=2009
DGENRE=Hip Hop
TTITLE0=Finally Here
TTITLE1=Jump (feat. Nelly Furtado)
TTITLE2=Gotta Get It (Dancer)
TTITLE3=Shone (feat. Pleasure P)
TTITLE4=Right Round
TTITLE5=R.O.O.T.S.
TTITLE6=Be On You (feat. Ne-Yo)
TTITLE7=Mind On My Money
TTITLE8=Available (feat. Akon)
TTITLE9=Touch Me
TTITLE10=Never
TTITLE11=Sugar (feat. Wynter)
TTITLE12=Rewind (feat. Wyclef Jean)
EXTD=
EXTT0=
EXTT1=
EXTT2=
EXTT3=
EXTT4=
EXTT5=
EXTT6=
EXTT7=
EXTT8=
EXTT9=
EXTT10=
EXTT11=
EXTT12=
PLAYORDER=
